<svg id="visual" viewBox="0 0 540 960" width="540" height="960" xmlns="http://www.w3.org/2000/svg" xmlns:xlink="http://www.w3.org/1999/xlink" version="1.1"><rect x="0" y="0" width="540" height="960" fill="#000203"></rect><defs><linearGradient id="grad1_0" x1="0%" y1="0%" x2="100%" y2="100%"><stop offset="30%" stop-color="#000203" stop-opacity="1"></stop><stop offset="70%" stop-color="#000203" stop-opacity="1"></stop></linearGradient></defs><defs><linearGradient id="grad2_0" x1="0%" y1="0%" x2="100%" y2="100%"><stop offset="30%" stop-color="#000203" stop-opacity="1"></stop><stop offset="70%" stop-color="#000203" stop-opacity="1"></stop></linearGradient></defs><g transform="translate(540, 0)"><path d="M0 216C-30.6 215.9 -61.2 215.8 -82.7 199.6C-104.1 183.3 -116.5 151 -126.6 126.6C-136.6 102.1 -144.4 85.6 -158.9 65.8C-173.4 46 -194.7 23 -216 0L0 0Z" fill="#ff9900"></path></g><g transform="translate(0, 960)"><path d="M0 -216C21.3 -197.5 42.6 -179.1 71.2 -171.8C99.8 -164.6 135.6 -168.5 152.7 -152.7C169.8 -137 168.1 -101.5 175.5 -72.7C182.9 -44 199.5 -22 216 0L0 0Z" fill="#ff9900"></path></g></svg>