<svg id="visual" viewBox="0 0 960 540" width="960" height="540" xmlns="http://www.w3.org/2000/svg" xmlns:xlink="http://www.w3.org/1999/xlink" version="1.1"><rect x="0" y="0" width="960" height="540" fill="#000000"></rect><defs><linearGradient id="grad1_0" x1="43.8%" y1="0%" x2="100%" y2="100%"><stop offset="14.444444444444446%" stop-color="#000000" stop-opacity="1"></stop><stop offset="85.55555555555554%" stop-color="#000000" stop-opacity="1"></stop></linearGradient></defs><defs><linearGradient id="grad2_0" x1="0%" y1="0%" x2="56.3%" y2="100%"><stop offset="14.444444444444446%" stop-color="#000000" stop-opacity="1"></stop><stop offset="85.55555555555554%" stop-color="#000000" stop-opacity="1"></stop></linearGradient></defs><g transform="translate(960, 0)"><path d="M0 162C-14.5 158.8 -29.1 155.6 -39.1 145.9C-49.1 136.1 -54.6 119.9 -65 112.6C-75.4 105.3 -90.6 107 -102.5 102.5C-114.5 98 -123.3 87.3 -132.5 76.5C-141.7 65.7 -151.5 54.7 -156.5 41.9C-161.5 29.2 -161.7 14.6 -162 0L0 0Z" fill="#ff9900"></path></g><g transform="translate(0, 540)"><path d="M0 -162C15 -163 30 -164 41.9 -156.5C53.8 -149 62.7 -133.1 69.5 -120.4C76.3 -107.7 81.1 -98.3 91.9 -91.9C102.7 -85.6 119.5 -82.3 127.3 -73.5C135.1 -64.7 133.8 -50.2 138.1 -37C142.4 -23.8 152.2 -11.9 162 0L0 0Z" fill="#ff9900"></path></g></svg>