<svg version="1.2" xmlns="http://www.w3.org/2000/svg" viewBox="0 0 700 700" width="700" height="700">
	<title>noun-error-1440171-svg</title>
	<style>
		.s0 { fill: #000000 } 
	</style>
	<g id="Layer">
		<path id="Layer" fill-rule="evenodd" class="s0" d="m681.1 349.9c0 182.3-147.9 331.2-331.2 331.2-182.3 0-331.2-147.9-331.2-331.2 0-182.3 147.9-331.2 331.2-331.2 183.3 0 331.2 147.9 331.2 331.2zm-47 0c0-157.2-127-284.2-284.2-284.2-157.2 0-284.2 127-284.2 284.2 0 157.2 127 284.2 284.2 284.2 157.2 0 284.2-127 284.2-284.2zm-284.2 149.9c-7.8 0-14.7-2.9-19.6-7.8-3.9-4.9-6.9-10.8-6.9-18.6 0-6.9 3-13.7 7.9-18.6 9.8-9.8 27.4-9.8 37.2 0 4.9 4.9 7.9 11.7 7.9 18.6 0 7.8-3 13.7-7.9 18.6-4.9 5.9-11.7 7.8-18.6 7.8zm0-107.8c-14.7 0-26.5-11.7-26.5-26.4v-139.2c0-14.7 11.8-26.4 26.5-26.4 14.7 0 26.5 11.7 26.5 26.4v139.2c0 14.7-11.8 26.4-26.5 26.4z"/>
	</g>
</svg>