<svg version="1.2" xmlns="http://www.w3.org/2000/svg" viewBox="0 0 700 700" width="700" height="700">
	<title>noun-dial-pad-2007258-svg</title>
	<style>
		.s0 { fill: #e6e6e6 } 
	</style>
	<path id="Layer" class="s0" d="m180.5 160c-35.7 0-64.5-28.8-64.5-64.5 0-35.7 28.8-64.5 64.5-64.5 35.7 0 64.5 28.8 64.5 64.5 0 35.7-28.8 64.5-64.5 64.5zm169.4 0c-35.7 0-64.6-28.8-64.6-64.5 0-35.7 28.9-64.5 64.6-64.5 35.6 0 64.5 28.8 64.5 64.5 0 35.7-28.9 64.5-64.5 64.5zm-169.4 170c-35.7 0-64.5-28.8-64.5-64.5 0-35.6 28.8-64.5 64.5-64.5 35.7 0 64.5 28.9 64.5 64.5 0 35.7-28.8 64.5-64.5 64.5zm169.4 0c-35.7 0-64.6-28.8-64.6-64.5 0-35.6 28.9-64.5 64.6-64.5 35.6 0 64.5 28.9 64.5 64.5 0 35.7-28.9 64.5-64.5 64.5zm-169.4 169.4c-35.7 0-64.5-28.9-64.5-64.5 0-35.7 28.8-64.5 64.5-64.5 35.7 0 64.5 28.8 64.5 64.5 0 35.6-28.8 64.5-64.5 64.5zm169.4 0c-35.7 0-64.6-28.9-64.6-64.5 0-35.7 28.9-64.5 64.6-64.5 35.6 0 64.5 28.8 64.5 64.5 0 35.6-28.9 64.5-64.5 64.5zm0 170c-35.7 0-64.6-28.8-64.6-64.5 0-35.7 28.9-64.5 64.6-64.5 35.6 0 64.5 28.8 64.5 64.5 0 35.7-28.9 64.5-64.5 64.5zm169.3-170c-35.7 0-64.5-28.9-64.5-64.5 0-35.7 28.8-64.5 64.5-64.5 35.7 0 64.5 28.8 64.5 64.5 0 35.6-28.8 64.5-64.5 64.5zm0-339.4c-35.7 0-64.5-28.8-64.5-64.5 0-35.7 28.8-64.5 64.5-64.5 35.7 0 64.5 28.8 64.5 64.5 0 35.7-28.8 64.5-64.5 64.5zm0 170c-35.7 0-64.5-28.8-64.5-64.5 0-35.6 28.8-64.5 64.5-64.5 35.7 0 64.5 28.9 64.5 64.5 0 35.7-28.8 64.5-64.5 64.5z"/>
</svg>