<svg version="1.2" xmlns="http://www.w3.org/2000/svg" viewBox="0 0 700 700" width="700" height="700">
	<title>noun-waiting-376046-svg</title>
	<style>
		.s0 { fill: #ffffff } 
	</style>
	<g id="Layer">
		<path id="Layer" fill-rule="evenodd" class="s0" d="m265.3 515.3c-0.2 0.2-0.4 0.7-0.7 1.2-1.5-0.9-2.9-1.8-4.7-3 0.6 2.2-1.4 4-3.5 3.8-4.6-0.5-9.1-1.2-13.6-1.8-0.7-0.1-1.6 0-2.1 0.3-3.6 2.1-7.3 2.5-11.3 1-0.8-0.3-1.8 0-2.7 0-4.1 0.2-8.3 0.4-12.4 0.7-3.5 0.2-7.1 0.8-10.6 1.1-3.8 0.3-7.6 0.2-11.4 0.8-3.3 0.5-6.6 1.6-9.8 2.7-1.9 0.6-5.5 0-6.6-1.8-0.4-0.6 0-1.7 0.1-2.7-0.3 0-1.1 0.1-1.9 0.2-0.3-0.6-0.7-1.1-0.8-1.7-0.1-0.5 0.2-1.4 0.4-1.4 1.5 0 2.4-1.2 3.6-1.8 2.9-1.4 6.1-2.3 9.3-2.7 4.1-0.6 8.3-0.5 12.4-0.8 6.6-0.5 13.1-1.2 19.6-1.7 3.5-0.3 6.9-0.2 10.4-0.4 1.6 0 3.2 0 4.7-0.1 3.6-0.4 7.1-0.9 10.6-1.1 1.9-0.1 3.9 0.4 5.8 0.4 2.6 0 5.3 0 7.9-0.4 5.2-0.7 10.4-1.6 15.6-2.5 1.1-0.2 2.2-0.2 3.1-0.6 6.4-2.8 13.4-1.6 19.9-3.6 1.1-0.3 2.4 0.1 4.1 0.2-0.7-1.6-1.4-3-1.9-4.4-1.9-5-4.1-10-5.5-15.1-0.5-1.9-1.3-3.6-1.8-5.4-0.6-2.4-1.2-5-1.1-7.5 0-2.2-0.8-4.1-1.3-6.1-1.8-8.3-3.8-16.5-5.8-24.7-0.5-2-0.6-4.2-1.7-5.8-1.7-2.7-4.9-1.3-7.4-1.4-3.9-0.2-7.3-3.9-6.5-7.9 0.1-0.4 0.4-0.9 0.4-1.4-0.1-4.4-0.4-8.8-0.2-13.2 0-2.6 0.6-5.2 1.1-7.8 1-6 2.2-12 3-18 0.3-2.5-0.2-5-0.4-7.5-0.1-0.7-0.3-1.5-0.1-2.2 1.9-7 1.9-14.3 1.9-21.5 0-1 0.3-2.2 0.9-3 1.4-1.9 0.5-2.8-1.2-3.7-3.1-1.7-6.3-3.3-9.2-5.2-4.1-2.7-4.2-3.9-2.4-8.4 0.8-1.9 0.8-4.2 1.2-6.3 0.2-1.3 0.4-2.6 0.9-3.9 2.2-5.9 4.5-11.8 6.8-17.8 0.3-0.8 0.5-1.7 0.8-2.5q1.6-4.9 3.2-9.8c0.2-0.6 0.6-1.2 0.7-1.9 1.4-5.8 2.6-11.7 4.1-17.6 0.6-2.3 1.5-4.8 2.8-6.8 2.1-3.1 5.7-2.8 8.9-2.5 5.3 0.6 5.1 0.7 5-4.6 0-5.9 0.3-11.8 0.3-17.7-0.1-3.3-0.7-6.5-0.9-9.7-0.1-3 0.1-6-0.1-9-0.7-8-1.7-15.9-2.4-23.9-0.1-1.9 0.2-3.8 0.2-5.7-0.1-3-0.2-5.9-0.3-8.8-0.1-2.4-0.5-4.8-0.3-7.2 0.4-4.3-0.8-8.3-1.4-12.5-0.5-3.6-1-7.3-0.8-10.9 0-1.5 1.7-3.2 3-4.4 3.2-3.2 5.9-7.1 10.6-8.5 3.4-1.1 6.9-2.3 10.4-3.3 3.3-1 6.7-2.1 10.2-2.7 4.7-0.7 9.3-2.8 14.2-1.9 0.5 0.1 1-0.2 1.5-0.3 3.9-0.8 7.8-1.7 11.7-2.4 1.2-0.2 2.6-0.5 3.7-0.1 4.2 1.5 8-0.3 12-1 3-0.5 6.1-0.9 9.2-1.5 1-0.2 1.8-0.9 2.8-1 5.1-0.8 10.2-1.9 15.4-2.3 4.3-0.3 7.2 2.1 8.8 6.2 1.8 4.5 4.1 8.8 5.7 13.5 2.6 8 4.7 16.1 7.1 24.2 0.6 2.1 1.2 4.1 1.9 6.2 2.3 6.6 3.1 13.5 3.7 20.5 0.7 7.6 1.7 15.1 2.2 22.7 0.3 5.1 0 10.3 0 15.5 0 1.3 0.3 2.6 0.3 3.9 0.1 3.1 0.2 6.3-0.1 9.4-0.1 1.5 0 2.1 1.4 2.6 1.5 0.6 2.9 1.6 4.4 2.4 1.4 0.7 3 1.1 4.3 1.9 1.3 0.8 2.3 1.9 3.5 2.8 0.7 0.6 1.3 1.5 2.1 1.7 4 0.8 5 3.8 5.8 7.2 0.9 3.5 2.1 7 3.2 10.4 1.8 5.7 3.6 11.4 5.6 17 1.3 3.4 3 6.6 4.5 9.9 2 4.3 4 8.5 5.9 12.8 0.9 2 1.5 4.1 2.5 5.9 1.8 3 1.4 5.7-0.5 8.3-1.4 1.9-2.9 3.8-4.7 5.2-3.7 2.9-3.8 6.8-3.4 10.8 0.4 3.9 1.5 7.7 2 11.6 0.9 5.8 1.5 11.7 2.2 17.6 0.5 3.5 1.3 7 1.7 10.5 0.5 5.5 0.5 11.1 1.5 16.5 1.8 10.4 0.4 20.7 0.3 31-0.1 4.9-1 9.7-1.6 14.6-1 7-1.9 14.1-3.3 21.1-1 5.2-2.5 10.4-4 15.6-1.7 5.9-3.6 11.7-5.3 17.5-0.2 0.7-0.6 1.3-0.6 1.9 0.5 4.4-2.4 7.5-4.2 11-0.2 0.5-0.7 0.8-0.7 1.3-0.7 5.5-5.4 7.5-9.3 9.9-1.6 0.9-4 0.9-5.9 0.6-5.7-1.2-11.2-3-16.9-4.1-4.1-0.8-8.2-1.1-12.3-1.4-4.1-0.3-8.3-0.3-12.4-0.3-3.4-0.1-6.8 0.2-10.3 0.1-4.7-0.1-9.4-0.5-14.1-0.7q-2.1-0.1-4.3-0.2c-4-0.1-8-0.2-12-0.3-2.7-0.1-5.5-0.1-8.2 0-5.3 0.3-10.6 0.8-15.9 1-5.2 0.1-10.4-0.1-15.5-0.1-2.2 0-4.4 0-6.5 0.3-3.7 0.6-7.3 0.2-10.9-0.8-2.1-0.5-4.4-0.1-6.6-0.1-2.8 0-5.7 0.5-8.4-0.1-3.1-0.7-6.1-0.9-9.2-0.3-0.9 0.2-2-0.2-3.1-0.3zm54.1-206.6c0.1-1.8-0.2-3.1 0.3-4.2 0.5-1.1 1.8-2.9 2.5-2.8 2.2 0.3 4.9 0.9 5.1 3.9 0.1 4.1 0.3 8.3-0.4 12.3-0.7 5.1-2 10.1-3.6 15-1.5 5-3.4 9.9-5.7 14.6-1.7 3.6-4.1 7-6.6 10.1-2.7 3.4-5.8 6.5-8.9 9.4-1.2 1.2-3.2 1.9-4.7 0-1.7-2.2-1.3-6.8 0.8-8.7 2-1.7 1.9-3.1-0.5-4.3-4.4-2.2-9-4.3-13.4-6.5-1.9-1-2.6-0.3-2.9 1.4-0.2 1-0.3 2-0.3 3 0.2 3.3 0.9 6.7 0.5 10-0.6 6.5-1.7 12.9-2.7 19.4-0.4 2.5-1.2 4.8-1.6 7.3-0.9 5.8-1.9 11.6-2.3 17.5-0.2 3.1 0.6 6.4 1.4 9.5 0.4 1.6 2.2 1.5 3 0.2 1.9-3 3.6-3.2 6.4-0.9 0.4 0.4 1.4 0.9 1.7 0.7 2.6-2.1 5.8-1.7 8.8-2.2 4.6-0.9 9.3-1.7 14-2.1 3.5-0.3 7.2-0.2 10.7-0.2 1.5 0 3 0.3 4.4 0.1 4.1-0.5 8.1 1.2 12.3-0.2 1.9-0.6 4.2 0.6 6.4 0.7 4.7 0 9.4-0.2 14.1-0.3 7.4-0.1 14.9-0.3 22.4-0.4 1.9 0 3.8 0.5 5.7 0.6 3.6 0.4 7.4 0.2 10.8 1.2 7 2.1 13.7 1 20.5-0.3 3-0.6 5.9-1.7 8.8-1.6 3.1 0.1 6.1 1.3 9.2 2 2.4 0.6 4.9 1.3 7.4 1.8 1.4 0.2 2.9 0 4.2 0.4 3.9 1.5 7.4 1.4 11.2-0.6 2-1 2.2-2.1 2.1-3.8q-0.4-6.4-1-12.8c-0.5-5.2-0.8-10.5-1.5-15.7-0.8-6.1-2.1-12.1-3-18.1-1.1-6.9-1.8-13.7-2.8-20.6-0.6-3.6-2.5-4.4-5.5-2.2-3.7 2.7-7.1 5.8-10.5 8.8-1.2 1.1-1.3 2.4 0.1 3.5 2.3 1.8 1.8 4.3 1 6.6-0.8 2.5-3 3-5 1.2-1-0.8-1.9-1.8-2.7-2.9-1.5-2.2-3-4.4-4.4-6.7-2.5-3.8-5.3-7.6-7.5-11.7-1.3-2.2-1.4-5.1-2.7-7.3-4.2-7.1-6.2-15-7.1-22.9-0.6-4.5 0.5-9.1 1-13.6 0.1-1 1.1-2.6 1.7-2.6 1.1 0 2.5 0.7 3.3 1.5 0.7 0.7 0.9 2 1.1 3 0.2 1.3 0.2 2.7 0.3 4 0.2 3.4 0.6 3.6 3.5 2.1q2.2-1.2 4.2-2.7c2.7-1.9 5.3-4 7.9-6 1.1-0.8 2.3-2 3.8-0.6 1.3 1.2 1.8 2.6 1.1 4.5-2 6.2-8.2 8.2-12.3 12.4-1.1 1.1-2.8 1.7-4.3 2.5-2 1.1-2.5 2.6-1.6 4.8 2 5.1 3.7 10.2 5.9 15.2 1.3 3 3.1 5.7 5 8.3 1.4 2.2 2.5 2.2 4.5 0.4 1.4-1.3 2.7-2.9 4.1-4.3 0.9-0.9 1.8-1.8 2.9-2.4 4.3-2.5 8.8-4.7 13-7.2 4.5-2.6 7-5.8 5.6-9.9-1.3-3.8-2.9-7.5-4.5-11.2-3.2-7.7-7-15.3-8.8-23.7-1.2-6-3.8-11.7-5.8-17.6-0.3-0.8-0.9-1.6-1.5-2.2-3.8-3.9-8.3-6.6-12.8-9.3-0.6-0.4-1.4-0.3-2.2-0.3-2.2 0.1-3.9-1.1-4.2-3.2q-0.3-2-0.3-4c0-5.5 0.1-11 0-16.5-0.1-3.7-0.4-7.3-0.6-11 0-1 0.3-2 0.2-2.9-0.8-6.5-2-12.9-2.5-19.4-0.6-8.3-1.4-16.5-4-24.5-2-5.9-2.9-12.1-4.9-18-2.4-6.9-5.4-13.6-8.4-20.3-1.3-3-3.9-4.6-7.6-3.8q-11.5 2.5-23 4.9c-2.3 0.4-4.7 0.7-7.1 0.9-4.4 0.4-8.9 0.5-13.3 0.9-3.9 0.3-8 0.6-11.9 1.3-5.3 0.8-10.6 1.9-15.9 3-6.1 1.3-12 3-16.9 7.1-3.4 2.9-5.9 6.1-4.1 11 0.3 0.6 0.3 1.3 0.3 2q0.5 16.4 1 32.8c0.1 2.1-0.1 4.2 0.1 6.2 0.3 3 1.1 5.9 1.3 8.9 0.5 6.5 0.9 13.1 1.3 19.7 0.3 5 0.7 10.1 0.7 15.2 0 5.3-0.7 10.6-0.8 15.9-0.2 4.6-2.1 6.1-6.2 4.3-4.1-1.8-8.1-0.6-9.3 3-0.9 2.3-1.7 4.6-2.4 7.1-1.4 5.1-2.5 10.4-4 15.6-1.7 6.1-3.8 12.2-5.4 18.3-2.1 7.6-3.9 15.3-5.7 22.9-0.1 0.6 0.1 1.5 0.4 1.8 2.5 1.7 4.9 3.6 7.5 4.9 8.1 3.9 16.9 6.3 24.5 11.4 1.9 1.3 3.2 0.8 4.1-1.2 3-6.3 6.3-12.5 8.9-18.9 1.7-4.4 2.4-9.1 3.3-13.7 0.1-0.8-0.8-2.5-1.5-2.7-4.7-1.3-9.3-3.3-14.4-2.7-4.1 0.5-7.2-1.2-9.3-5.6 1.6-0.3 2.9-0.7 4.3-0.8 1-0.1 2 0.5 2.9 0.5 4.9 0 9.6 0.9 14.2 2.4 1.5 0.5 3.3 0.6 5.1 0.9zm18.7 176.8c-0.7-0.5-0.9-0.7-1-0.7-3.7 0.2-7.4 0.6-11.1 0.7-1.1 0-2.1-0.8-3.2-1.3 0.6-0.6 1-1.7 1.7-1.9 4.8-1.2 8.7-4.7 13.9-4.7 1.6 0 3.4-0.8 5-0.6 1.6 0.3 2.7-0.7 3.9-0.8 3.8-0.1 7.5 0.5 11.3 0.5 4.4 0 8.7-0.2 13.1-0.5 1.7-0.1 3.3-0.9 5-0.9 4.4 0.1 8.8-0.5 13.3 0.4 4.3 0.9 8.8 0.3 13.2 0.5 4.8 0.1 9.6 0.4 14.4 0.6 0.5 0 1-0.1 1.5-0.2 4.7-1 9.3-0.6 13.8 0.6 0.7 0.1 1.3 0.4 1.9 0.5 3.5 0.3 6.9 0.5 10.5 0.8-1.2 4.9-5.5 5.6-9.2 5.5-4.8-0.2-9.6-0.6-14.4-0.8-0.1 4.9 1.4 8.7 4 12.2 1.6 2.2 3.2 4.4 4.5 6.7 1.3 2.3 2.7 4.4 5.7 4.5 1.3 0 2.8-0.4 4.1-0.8 0.9-0.4 2.2-1 2.5-1.9 2.5-6.2 5-12.4 7.1-18.7 1.9-6 3.5-12.1 4.9-18.3 1.4-6 2.4-12.2 3.5-18.3 0.5-2.9 0.6-5.9 0.9-8.8 0.3-3.9 0.6-7.9 0.9-12-1.7 0-2.9-0.3-3.9 0-3.8 1-7.5 1.4-11.1-0.6-0.7-0.4-1.7-0.1-2.5-0.3q-4.9-1.3-9.8-2.6c-0.8-0.2-1.6-0.7-2.4-0.7-3.3 0.4-6.7 0.7-10 1.4-5.9 1.2-11.8 2.3-17.8 0.9-3.1-0.7-6.2-1.3-9.4-1.6-6.7-0.7-13.4-1.2-20.1-1.7q-3.7-0.2-7.5-0.1c-1.9 0.1-3.9 0.6-5.9 0.8-3 0.2-6 0.2-9 0.3-0.7 0-1.5 0.1-2.2 0.1q-7-0.4-13.9-0.8c-1.3-0.1-2.5-0.2-3.8-0.2q-4.4-0.1-8.8-0.1c-1.5 0.1-2.9 0.4-4.3 0.3-8-0.6-15.8 0.8-23.5 2.4-1.8 0.3-4.3 1.4-4.7 2.7-0.8 2.5-1.3 5.9-0.1 7.9 2.1 3.8 3.2 7.8 3.6 11.9 0.3 3.3 2.2 6.4 0.8 9.8-0.2 0.4 0.4 1.1 0.7 1.6 0.3 0.4 0.8 0.8 1 1.2 1.4 4.6 2.6 9.1 4 13.7 0.9 3 2.1 6 3 9.1 0.7 2.6 1.1 5.3 1.7 7.9 0.2 1 0.3 2.1 0.6 3 0.7 1.7 1.3 3.5 2.4 5 1.3 1.9 3 3.5 4.8 5.5 0.8-0.1 2.2 0.1 3.4-0.4 3.1-1.4 6.4-2.8 9.1-4.9 3.3-2.5 6-5.7 8.9-8.6 1.6-1.7 3.3-3.4 5-5.2zm79.3 13.9c0 0 0.1-0.6-0.1-1.1q-4.1-7.1-8.2-14.2c-0.3-0.5-1.1-1.1-1.6-1.1-4.1 0-8-2.6-12.4-0.9-1.6 0.6-3.6 0-5.4-0.1-3.1-0.1-6.2-0.2-9.2-0.4-2.2-0.1-4.4-0.8-6.4-0.5-2.8 0.4-5.4 1.5-8.1 2.3-0.8 0.2-1.5 0.2-2.3 0.1-2.8-0.1-5.7-0.7-8.5-0.3-2.2 0.3-4.8 1.2-6.3 2.8-1.7 1.7-2.4 4.5-4.4 6.3-1.3 1-2.3 2.4-3.2 3.8-0.2 0.5 0.7 2.2 0.7 2.2 2.3-0.6 4.9 1.3 7.1-0.6 0.2-0.2 0.7-0.2 1.1-0.2 3.3 0 6.6 0 9.9-0.1 0.5 0 1.1-0.3 1.6-0.5 1.2-0.2 2.4-0.6 3.6-0.5 2.8 0.1 5.6 0.6 8.4 0.7 7 0.3 14 0.3 21 0.7 3.1 0.1 6.1 1.3 9.2 1.5 4.4 0.3 8.9 0.1 13.5 0.1z"/>
		<path id="Layer" fill-rule="evenodd" class="s0" d="m255.4 237.9c0 3.1 0 6.2-0.1 9.2 0 3.1-2.4 4.6-4.2 6.5-2.8 3-6.4 4.6-10.3 5-3.8 0.4-7.4-1.4-9.5-4.5-1.6-2.5-2.4-5.7-3-8.7-0.4-1.9-0.1-4 0.1-6 0.7-5.8 5-8 9.8-10 3.3-1.4 6-1.1 8.9 0.6 0.5 0.3 1.2 0.5 1.7 0.3 3.2-0.8 4.7 1.1 5.7 3.8 0.5 1.2 0.8 2.5 1.1 3.8q-0.1 0-0.2 0zm-18.3 6.3c0.1 2.3 2.1 2.4 3.6 2.6 1.8 0.3 4.5-1.9 4.5-3.2 0-1.2-2.7-2.9-4.5-2.9-1.8 0-3.7 1.9-3.6 3.5z"/>
		<path id="Layer" fill-rule="evenodd" class="s0" d="m460.1 152c-0.3-5.4 0.7-10.3 4.5-14.4 0.6-0.7 1.4-1.4 2.3-1.7 2.7-0.8 5.3-1.7 8.1-2.1 2.3-0.4 4.8-0.6 7-0.1 3 0.7 3.8 3.8 4.5 6.4 0.7 2.3 1.1 4.7 1.5 7 1.3 6.9-5.1 15-12.1 15.2-2.6 0.1-5.2 0.4-7.7-0.1-4.9-0.9-8.4-5.2-8.1-10.2zm11.9 0.8c2.4-0.6 4.7-1 7-1.6 1.8-0.6 2.6-2.7 2.1-4.7-0.6-2.1-1.3-3.9-4.1-3.2-1.7 0.3-3.5 0.3-5.1 0.9-1.7 0.7-3.5 1.7-4.8 2.9-0.6 0.5-0.5 2.3-0.1 3.1 1.1 1.8 2.7 3 5 2.6z"/>
		<path id="Layer" fill-rule="evenodd" class="s0" d="m447.3 56c-0.1 2.2 0 4.5-0.3 6.7-0.6 3.3-2 6.2-5.6 7.3-2.8 0.9-5.5 1.8-8.4 2.3-2.7 0.6-5.2-0.4-6.7-2.8-2.7-4.2-4.6-8.9-3.7-13.8 0.8-4.3 3.9-7.8 7.6-10.2 2.3-1.5 4.9-2.5 7.5-3.2 1.2-0.3 3.2 0.1 3.9 0.9 2.9 3.7 6.1 7.5 5.7 12.8zm-11.6-2c-2.1 0.1-4.3 1.6-5 3.5-0.8 2 0.5 4.4 2.6 4.2 1.5-0.2 2.9-1.1 4.3-1.8 1.5-0.7 2.5-1.7 1.9-3.5-0.6-1.9-1.9-2.6-3.8-2.4z"/>
		<path id="Layer" fill-rule="evenodd" class="s0" d="m508.4 471.1c-2.3 0-4.6 0.2-6.8 0-4.9-0.4-8-4.3-6.9-9.1 1.1-4.2 2.6-8.4 4.2-12.4 0.5-1.3 1.8-2.3 3-3.1 2.1-1.4 4.3-2.5 6.5-3.7 0.4-0.2 0.9-0.3 1.4-0.3 2.7-0.4 9.4 4.2 10.3 6.8 0.5 1.3 1.3 2.6 2 3.9 1.9 3.6 0.3 7-1.1 10-2.3 5.2-7 7.8-12.6 7.9zm-3.1-8.9c3.3-0.7 5.7-1.2 8.1-1.8 1.5-0.4 1.6-1.4 1.1-2.8-1.2-3.3-4.5-3.9-7-4.3-1.7-0.2-4 1.8-5.6 3.2-0.7 0.6-1 2.8-0.5 3.4 1.2 1.1 2.9 1.7 3.9 2.3z"/>
		<path id="Layer" fill-rule="evenodd" class="s0" d="m375.7 265.1c0 0.6-0.1 1.3 0.2 1.7 3.1 3.6 2.5 8.3 3.6 12.5 0.9 3.6 2 7.2 2.6 10.8 0.4 3 0.1 6 0.2 9 0.1 1 0.3 2.1 0.6 3.2 1.1 4.6-1.9 8-6.7 7.2-3.1-0.6-6.2-1.3-9.3-1.8-1.7-0.3-3.5-0.4-5.2-0.6-0.8-0.1-1.7-0.3-2.5-0.5 0.9-4 0.9-8 2.6-11.2 3-5.4 3.6-11.3 4.3-17.1 0.4-2.7 0-5.5 0-8.2 0-0.8 0-1.6 0.2-2.4 0.5-2.4-0.7-4.1-3.2-4.4-0.3-0.1-0.7-0.1-1 0-5.7 1.3-11.2-0.6-16.8-0.8-3.2-0.2-6.4 1.1-9.6 1.5-2.5 0.3-5.1 0.5-7.7 0.3-2.8-0.4-4.9-3.8-3.5-6.3 1.6-2.8 0.9-5.5 0.8-8.2-0.1-2.6-0.2-5.1-0.5-7.7-0.2-2.7-0.7-5.4-0.9-8.1-0.5-4.6-0.9-9.1-1.3-13.7-0.1-1.4-0.3-2.7-0.3-4.1-0.2-6-0.3-12-0.5-18-0.1-2.8-0.4-5.5-0.6-8.3-0.2-3.1-0.4-6.2-0.6-9.2-0.2-3.5-0.6-7-0.5-10.4 0-2.5 0.3-5.1 1-7.5 0.2-0.9 1.7-1.9 2.7-2 4.4-0.4 7.9-2.9 11.6-4.8 4.5-2.2 8.5-5.7 13.2-7.1 3.8-1.2 7.5-3.2 11.8-3.2 3.5-0.1 7-2.1 10.6-2.6 4.9-0.8 9.8-3.1 15.1-1.4 6.6 2 10.9 5.7 12.3 12.9 1.5 7.7 3.7 15.2 4.4 23 0.4 4.6 2.1 9.1 2.7 13.7 0.9 7.3 1.3 14.7 1.8 22.1 0.3 3 0.5 6.1 0.6 9.2 0.2 7.7 0.5 15.5 0.3 23.2-0.1 3.6-1.3 7.2-1.9 10.8-0.1 0.7-0.2 1.5 0 2.2 0.5 2.6-0.1 3.6-2.7 3.8-5 0.4-10 0.6-15 1.1-4.2 0.4-8.4 0.9-12.9 1.4zm10.9-9.1c0.9-5.7 1.8-11.1 2.6-16.5 0.6-3.5 1.2-7 1.5-10.5q0.7-9.7 1-19.3c0.2-7.8 0.3-15.5 0.2-23.2 0-2.5-1.3-4.9-1.6-7.3-0.9-6.7-1.6-13.4-2.4-20.1-0.5-4.2-3.4-6.7-7.6-7.1-3.8-0.3-7.3 0.5-10.8 1.6-3.7 1.2-7.6 2-11.3 3-1.6 0.4-3.1 0.9-4.6 1.3-1.8 0.5-3.8 0.8-5.5 1.6-3.3 1.6-6.6 3.5-9.8 5.3-1.7 1-3.4 2.1-5.1 3.2-3.7 2.4-5.7 5.5-5.2 10.1 0.5 4.8 0.7 9.6 0.9 14.4 0.4 8.8 0.5 17.7 1.1 26.4 0.5 8.6 1.3 17.2 2 25.8 0.2 2.9 0.4 5.8 0.5 8.6 1.9 0.3 3.4 0.7 5 0.7 4.3 0 8.7-0.4 13-0.2 5.4 0.2 10.8 0.8 16.2 1.1 1.4 0.2 2.9 0.3 4.4 0.1 3.3-0.5 6.4-1 9.7 0.4 1.7 0.7 3.7 0.4 5.8 0.6zm-12 25.8c-0.1-1.7 0.5-4.3-2.1-4.3-2.2 0-2 2.6-2.4 4.1-1 4.6-1.9 9.3-2.8 13.9-0.6 2.3-0.1 3 2.3 3.2 1.1 0.1 2.2 0.1 3.2 0.3 5.4 1.1 5.6 0.9 4.7-4.6-0.1-0.3-0.2-0.6-0.3-1q-1.3-5.8-2.6-11.6z"/>
		<path id="Layer" fill-rule="evenodd" class="s0" d="m337.9 219.6c3.1 0.9 5.6 2.3 7.5 4.8 1.3 1.7 2.5 3.7 4.1 5.2 3.4 3.2 4.8 7.3 6.3 11.4 0.3 0.8-0.2 2.3-0.9 2.9-0.5 0.5-2 0.5-2.7 0.2-1-0.5-1.9-1.4-2.4-2.4-1.8-3.5-4.6-5.8-7.6-8.1-2.5-1.9-4.7-4.5-6.2-7.2-0.8-1.4 0.3-3.9 0.6-5.9 0.1-0.3 0.8-0.6 1.3-0.9z"/>
		<path id="Layer" fill-rule="evenodd" class="s0" d="m345.2 187c-5 0.3-6.6-0.9-6.8-5.2-0.3-4.2 0.8-5.4 5.1-5.7 3-0.1 6.6 3.2 6.9 6.3 0.2 3.2-1.1 4.4-5.2 4.6z"/>
		<path id="Layer" fill-rule="evenodd" class="s0" d="m384.4 176.6c0.2 2.7-0.7 4-2.8 4.2-2.6 0.3-6.2-2.7-6.4-5.3-0.1-1.8 2.1-4.4 3.9-4.5 2.5-0.2 5.1 2.6 5.3 5.6z"/>
	</g>
</svg>